<svg xmlns="http://www.w3.org/2000/svg" viewBox="0 0 64 64">
  <rect width="64" height="64" rx="14" fill="#1d5c33"/>
  <circle cx="64" cy="0" r="26" fill="#f2b230" opacity="0.18"/>
  <path d="M32 14c-8.5 0-15.4 6.9-15.4 15.4 0 3 .86 5.8 2.35 8.17-3.7 1.13-6.35 4.55-6.35 8.6 0 4.95 4.02 8.97 8.97 8.97h21.14c4.95 0 8.97-4.02 8.97-8.97 0-4.05-2.65-7.47-6.35-8.6 1.49-2.37 2.35-5.17 2.35-8.17C47.4 20.9 40.5 14 32 14Z" fill="#2f7d47"/>
  <circle cx="24.5" cy="21.5" r="7" fill="#2f7d47"/>
  <circle cx="39.5" cy="21.5" r="7" fill="#2f7d47"/>
  <circle cx="24.5" cy="21.5" r="4.6" fill="#f7f7f2"/>
  <circle cx="39.5" cy="21.5" r="4.6" fill="#f7f7f2"/>
  <circle cx="24.5" cy="21.5" r="2.2" fill="#16301f"/>
  <circle cx="39.5" cy="21.5" r="2.2" fill="#16301f"/>
  <path d="M24 37.5c2.4 2.6 5.2 3.9 8 3.9s5.6-1.3 8-3.9" stroke="#16301f" stroke-width="2.6" stroke-linecap="round" fill="none"/>
  <path d="M18 50h28" stroke="#f2b230" stroke-width="3.4" stroke-linecap="round"/>
</svg>
